<svg width="100%" height="100%" viewBox="0 0 32 32" fill="none" xmlns="http://www.w3.org/2000/svg">
<path d="M18.6667 21.3333H25.3333V28M13.3333 10.6667H6.66667V4M25.8901 12.0045C25.1425 10.1542 23.8908 8.55072 22.2773 7.3763C20.6639 6.20189 18.7536 5.50336 16.763 5.36068C14.7725 5.21799 12.7814 5.63654 11.0169 6.56882C9.25244 7.5011 7.7851 8.91005 6.78125 10.6348M6.10938 19.9961C6.85696 21.8464 8.10862 23.4499 9.7221 24.6243C11.3356 25.7987 13.2478 26.4964 15.2384 26.6391C17.2289 26.7817 19.2183 26.3633 20.9828 25.431C22.7473 24.4987 24.2137 23.09 25.2175 21.3652" stroke="#720ADC" stroke-width="2" stroke-linecap="round" stroke-linejoin="round"/>
</svg>
