<svg width="100%" height="100%" viewBox="0 0 32 32" fill="none" xmlns="http://www.w3.org/2000/svg">
<path d="M12 8L16 4M16 4L20 8M16 4V17.3333M9.33368 13.3333C8.09117 13.3333 7.46991 13.3333 6.97986 13.5363C6.32645 13.807 5.80701 14.3264 5.53636 14.9798C5.33337 15.4699 5.33337 16.0908 5.33337 17.3333V23.7333C5.33337 25.2268 5.33337 25.973 5.62402 26.5435C5.87969 27.0452 6.28734 27.454 6.7891 27.7096C7.35898 28 8.10537 28 9.59592 28H22.4048C23.8954 28 24.6407 28 25.2105 27.7096C25.7123 27.454 26.1207 27.0452 26.3763 26.5435C26.6667 25.9736 26.6667 25.228 26.6667 23.7375V17.3333C26.6667 16.0908 26.6666 15.4699 26.4636 14.9798C26.1929 14.3264 25.6739 13.807 25.0205 13.5363C24.5305 13.3333 23.9092 13.3333 22.6667 13.3333" stroke="#720ADC" stroke-width="2" stroke-linecap="round" stroke-linejoin="round"/>
</svg>
