<svg width="100%" height="100%" viewBox="0 0 32 32" fill="none" xmlns="http://www.w3.org/2000/svg">
<path d="M12.3073 12.2632H9.6003C8.10683 12.2632 7.35953 12.2632 6.7891 12.5538C6.28734 12.8095 5.87969 13.2171 5.62402 13.7189C5.33337 14.2893 5.33337 15.0366 5.33337 16.5301V23.9968C5.33337 25.4903 5.33337 26.2366 5.62402 26.807C5.87969 27.3088 6.28734 27.7172 6.7891 27.9728C7.35898 28.2632 8.1054 28.2632 9.59596 28.2632H22.4042C23.8947 28.2632 24.64 28.2632 25.2099 27.9728C25.7117 27.7172 26.1207 27.3088 26.3763 26.807C26.6667 26.2372 26.6667 25.4918 26.6667 24.0013V16.5257C26.6667 15.0352 26.6667 14.2888 26.3763 13.7189C26.1207 13.2171 25.7117 12.8095 25.2099 12.5538C24.6395 12.2632 23.8938 12.2632 22.4003 12.2632H19.6919M12.3073 12.2632H19.6919M12.3073 12.2632C12.1374 12.2632 12 12.1254 12 11.9555V8.26318C12 6.05404 13.7909 4.26318 16 4.26318C18.2092 4.26318 20 6.05404 20 8.26318V11.9555C20 12.1254 19.8619 12.2632 19.6919 12.2632" stroke="#FF7300" stroke-width="2" stroke-linecap="round" stroke-linejoin="round"/>
</svg>
