<svg width="100%" height="100%" viewBox="0 0 128 28" fill="none" xmlns="http://www.w3.org/2000/svg">
<path fill-rule="evenodd" clip-rule="evenodd" d="M0 12.414C1.23664 12.414 2.10009 12.1615 2.59036 11.6566C3.08062 11.1444 3.32576 10.2992 3.32576 9.12113V5.97099C3.32576 4.85143 3.45015 3.91115 3.69894 3.15014C3.95505 2.38181 4.34287 1.76715 4.86241 1.30615C5.38194 0.845159 6.04051 0.512218 6.8381 0.30733C7.6357 0.102443 8.57598 0 9.65896 0V2.60133C8.81014 2.60133 8.14792 2.72573 7.67229 2.97452C7.19666 3.22331 6.86371 3.61113 6.67346 4.13799C6.49053 4.65752 6.39906 5.3234 6.39906 6.13563V10.1309C6.39906 10.6944 6.31491 11.2176 6.14661 11.7005C5.97831 12.1761 5.66732 12.5896 5.21364 12.9408C4.75996 13.292 4.11237 13.5664 3.27087 13.764C3.19601 13.7816 3.11918 13.7984 3.04038 13.8144V14.1856C3.11918 14.2016 3.19601 14.2184 3.27087 14.236C4.11237 14.4262 4.75996 14.7006 5.21364 15.0592C5.66732 15.4104 5.97831 15.8275 6.14661 16.3105C6.31491 16.7861 6.39906 17.3056 6.39906 17.8691V21.8644C6.39906 22.6693 6.49053 23.3315 6.67346 23.851C6.86371 24.3779 7.19666 24.7657 7.67229 25.0145C8.14792 25.2706 8.81014 25.3987 9.65896 25.3987V28C8.57598 28 7.6357 27.8976 6.8381 27.6927C6.04051 27.4878 5.38194 27.1548 4.86241 26.6938C4.34287 26.2328 3.95505 25.6182 3.69894 24.8499C3.45015 24.0889 3.32576 23.1486 3.32576 22.029V18.8679C3.32576 17.6971 3.08062 16.8556 2.59036 16.3434C2.10009 15.8312 1.23664 15.5751 0 15.5751V14.0604V13.9396V12.414ZM29.7665 10.1339V22.5429H33.2108V10.1339H29.7665ZM30.1789 8.02536C30.5454 8.36467 30.9847 8.53432 31.4967 8.53432C32.0088 8.53432 32.4454 8.36467 32.8065 8.02536C33.173 7.68066 33.3563 7.26865 33.3563 6.78931C33.3563 6.31536 33.173 5.90873 32.8065 5.56942C32.4454 5.22472 32.0088 5.05238 31.4967 5.05238C30.9847 5.05238 30.5454 5.22472 30.1789 5.56942C29.8177 5.90873 29.6372 6.31536 29.6372 6.78931C29.6372 7.26865 29.8177 7.68066 30.1789 8.02536ZM23.062 9.23717C23.5525 9.59802 23.8301 10.1043 23.8948 10.756H27.2501C27.2339 9.77037 26.9698 8.90325 26.4577 8.15462C25.9457 7.40599 25.2288 6.82162 24.3071 6.40153C23.3908 5.98143 22.3182 5.77139 21.0893 5.77139C19.8819 5.77139 18.8039 5.98143 17.8552 6.40153C16.9066 6.82162 16.1601 7.40599 15.6157 8.15462C15.0767 8.90325 14.8099 9.77845 14.8153 10.7802C14.8099 12.0028 15.2114 12.9749 16.0199 13.6966C16.8284 14.4183 17.9307 14.9488 19.3267 15.2882L21.1297 15.7406C21.7334 15.886 22.2427 16.0476 22.6578 16.2253C23.0782 16.403 23.3962 16.6185 23.6118 16.8716C23.8328 17.1247 23.9433 17.4371 23.9433 17.8087C23.9433 18.2073 23.822 18.56 23.5795 18.867C23.3369 19.174 22.9946 19.4137 22.5527 19.586C22.1161 19.7584 21.6013 19.8446 21.0084 19.8446C20.4047 19.8446 19.863 19.753 19.3833 19.5699C18.909 19.3814 18.529 19.104 18.2433 18.7378C17.9631 18.3662 17.804 17.903 17.7663 17.3482H14.3787C14.4056 18.5385 14.694 19.5376 15.2438 20.3455C15.799 21.1479 16.5697 21.7538 17.5561 22.1632C18.5479 22.5725 19.7121 22.7772 21.0488 22.7772C22.3963 22.7772 23.5471 22.5752 24.5012 22.1712C25.4606 21.7619 26.1936 21.1883 26.7003 20.4505C27.2123 19.7072 27.4711 18.8293 27.4765 17.8168C27.4711 17.1274 27.3444 16.5161 27.0965 15.9829C26.8539 15.4497 26.5116 14.9865 26.0697 14.5934C25.6277 14.2002 25.1048 13.869 24.5012 13.5997C23.8975 13.3304 23.2345 13.115 22.5122 12.9534L21.0246 12.5979C20.6635 12.5171 20.3239 12.4202 20.0059 12.3071C19.6879 12.1886 19.4076 12.0513 19.165 11.8951C18.9225 11.7335 18.7311 11.5423 18.591 11.3215C18.4562 11.1007 18.3943 10.8421 18.405 10.5459C18.405 10.1905 18.5074 9.8727 18.7123 9.59264C18.9225 9.31257 19.2243 9.09445 19.6178 8.93826C20.0113 8.77668 20.4937 8.69589 21.065 8.69589C21.9059 8.69589 22.5715 8.87632 23.062 9.23717ZM42.5753 10.1339V12.7191H40.2387V18.7297C40.2387 19.0475 40.2872 19.2952 40.3842 19.4729C40.4812 19.6453 40.616 19.7665 40.7885 19.8365C40.9663 19.9065 41.1712 19.9415 41.4029 19.9415C41.5646 19.9415 41.7263 19.9281 41.888 19.9011C42.0497 19.8688 42.1737 19.8446 42.26 19.8284L42.8017 22.3894C42.6292 22.4432 42.3866 22.5052 42.074 22.5752C41.7614 22.6506 41.3814 22.6964 40.934 22.7125C40.1039 22.7448 39.3763 22.6344 38.751 22.3813C38.1312 22.1282 37.6488 21.735 37.3038 21.2018C36.9589 20.6686 36.7891 19.9954 36.7945 19.1821V12.7191H35.0966V10.1339H36.7945V7.16093H40.2387V10.1339H42.5753ZM56.2269 10.1339H52.7826V17.2594C52.788 17.8141 52.6775 18.28 52.4511 18.657C52.2302 19.034 51.9391 19.3195 51.578 19.5133C51.2168 19.7018 50.8288 19.7961 50.4137 19.7961C49.7615 19.7961 49.2414 19.5834 48.8533 19.1579C48.4652 18.7324 48.2685 18.1534 48.2631 17.4209V10.1339H44.8189V18.0349C44.8243 19.0044 45.0021 19.8365 45.3525 20.5313C45.7082 21.226 46.2014 21.7619 46.832 22.1389C47.4627 22.5159 48.193 22.7044 49.0231 22.7044C49.9556 22.7044 50.7452 22.4836 51.392 22.042C52.0442 21.6003 52.5104 21.016 52.7907 20.2889H52.9201V22.5429H56.2269V10.1339ZM62.5231 22.7772C61.7308 22.7772 61.0247 22.6398 60.4048 22.3651C59.785 22.0851 59.2945 21.6731 58.9333 21.1291C58.5776 20.5797 58.3997 19.8957 58.3997 19.0771C58.3997 18.3877 58.5264 17.8087 58.7797 17.3402C59.0331 16.8716 59.378 16.4946 59.8146 16.2091C60.2512 15.9237 60.7471 15.7083 61.3022 15.5628C61.8628 15.4174 62.4503 15.3151 63.0648 15.2558C63.7871 15.1804 64.3692 15.1104 64.8112 15.0458C65.2531 14.9758 65.5738 14.8734 65.7733 14.7388C65.9727 14.6042 66.0724 14.4049 66.0724 14.141V14.0925C66.0724 13.5808 65.9107 13.185 65.5873 12.9049C65.2693 12.6249 64.8166 12.4848 64.229 12.4848C63.6092 12.4848 63.116 12.6222 62.7495 12.8968C62.3829 13.1661 62.1404 13.5054 62.0218 13.9148L58.8363 13.6562C58.998 12.9022 59.316 12.2505 59.7903 11.7012C60.2647 11.1464 60.8764 10.721 61.6257 10.4247C62.3803 10.1231 63.2534 9.97234 64.2452 9.97234C64.9351 9.97234 65.5954 10.0531 66.226 10.2147C66.8621 10.3763 67.4253 10.6267 67.9158 10.966C68.4117 11.3053 68.8025 11.7416 69.0881 12.2748C69.3738 12.8026 69.5167 13.4354 69.5167 14.1733V22.5429H66.2503V20.8221H66.1533C65.9538 21.2099 65.687 21.5519 65.3529 21.8481C65.0187 22.1389 64.6171 22.3678 64.1482 22.5348C63.6793 22.6964 63.1376 22.7772 62.5231 22.7772ZM63.5095 20.402C64.0161 20.402 64.4635 20.3024 64.8516 20.1031C65.2397 19.8984 65.5442 19.6238 65.7652 19.2791C65.9862 18.9344 66.0967 18.5439 66.0967 18.1076V16.7908C65.9889 16.8608 65.8407 16.9254 65.652 16.9847C65.4687 17.0386 65.2612 17.0897 65.0295 17.1382C64.7977 17.1813 64.5659 17.2217 64.3341 17.2594C64.1024 17.2917 63.8922 17.3213 63.7035 17.3482C63.2993 17.4075 62.9462 17.5017 62.6444 17.631C62.3425 17.7603 62.1081 17.9353 61.941 18.1561C61.7739 18.3715 61.6903 18.6408 61.6903 18.964C61.6903 19.4326 61.8601 19.7907 62.1997 20.0385C62.5447 20.2808 62.9812 20.402 63.5095 20.402ZM78.7942 12.7191V10.1339H76.4577V7.16093H73.0134V10.1339H71.3156V12.7191H73.0134V19.1821C73.008 19.9954 73.1778 20.6686 73.5228 21.2018C73.8678 21.735 74.3502 22.1282 74.97 22.3813C75.5953 22.6344 76.3229 22.7448 77.153 22.7125C77.6003 22.6964 77.9803 22.6506 78.293 22.5752C78.6056 22.5052 78.8481 22.4432 79.0206 22.3894L78.4789 19.8284C78.3927 19.8446 78.2687 19.8688 78.107 19.9011C77.9453 19.9281 77.7836 19.9415 77.6219 19.9415C77.3901 19.9415 77.1853 19.9065 77.0074 19.8365C76.835 19.7665 76.7002 19.6453 76.6032 19.4729C76.5062 19.2952 76.4577 19.0475 76.4577 18.7297V12.7191H78.7942ZM81.0378 22.5429V10.1339H84.4821V22.5429H81.0378ZM82.768 8.53432C82.256 8.53432 81.8167 8.36467 81.4502 8.02536C81.089 7.68066 80.9085 7.26865 80.9085 6.78931C80.9085 6.31536 81.089 5.90873 81.4502 5.56942C81.8167 5.22472 82.256 5.05238 82.768 5.05238C83.2801 5.05238 83.7167 5.22472 84.0778 5.56942C84.4443 5.90873 84.6276 6.31536 84.6276 6.78931C84.6276 7.26865 84.4443 7.68066 84.0778 8.02536C83.7167 8.36467 83.2801 8.53432 82.768 8.53432ZM89.5938 21.9854C90.5101 22.5186 91.5962 22.7852 92.8521 22.7852C94.108 22.7852 95.1914 22.5186 96.1023 21.9854C97.0186 21.4469 97.7247 20.6982 98.2206 19.7395C98.7165 18.7755 98.9644 17.6579 98.9644 16.3869C98.9644 15.105 98.7165 13.9848 98.2206 13.0261C97.7247 12.062 97.0186 11.3134 96.1023 10.7802C95.1914 10.2416 94.108 9.97234 92.8521 9.97234C91.5962 9.97234 90.5101 10.2416 89.5938 10.7802C88.6829 11.3134 87.9795 12.062 87.4836 13.0261C86.9878 13.9848 86.7398 15.105 86.7398 16.3869C86.7398 17.6579 86.9878 18.7755 87.4836 19.7395C87.9795 20.6982 88.6829 21.4469 89.5938 21.9854ZM94.2993 19.6345C93.9166 19.9577 93.4396 20.1192 92.8683 20.1192C92.2915 20.1192 91.8065 19.9577 91.413 19.6345C91.0249 19.306 90.7311 18.859 90.5317 18.2934C90.3377 17.7279 90.2406 17.0843 90.2406 16.3626C90.2406 15.6409 90.3377 14.9973 90.5317 14.4318C90.7311 13.8663 91.0249 13.4193 91.413 13.0907C91.8065 12.7622 92.2915 12.5979 92.8683 12.5979C93.4396 12.5979 93.9166 12.7622 94.2993 13.0907C94.682 13.4193 94.9704 13.8663 95.1644 14.4318C95.3639 14.9973 95.4636 15.6409 95.4636 16.3626C95.4636 17.0843 95.3639 17.7279 95.1644 18.2934C94.9704 18.859 94.682 19.306 94.2993 19.6345ZM104.648 15.3689V22.5429H101.204V10.1339H104.486V12.3233H104.632C104.907 11.6016 105.368 11.0307 106.015 10.6106C106.661 10.1851 107.446 9.97234 108.367 9.97234C109.23 9.97234 109.982 10.1608 110.623 10.5378C111.264 10.9149 111.763 11.4534 112.119 12.1536C112.475 12.8484 112.652 13.6778 112.652 14.6419V22.5429H109.208V15.2558C109.214 14.4964 109.02 13.904 108.626 13.4785C108.233 13.0476 107.691 12.8322 107.001 12.8322C106.537 12.8322 106.128 12.9319 105.772 13.1311C105.422 13.3304 105.147 13.6212 104.947 14.0036C104.753 14.3806 104.654 14.8357 104.648 15.3689ZM124.429 16.3434C124.92 15.8312 125.783 15.5751 127.02 15.5751V14.0604V13.9396V12.414C125.783 12.414 124.92 12.1615 124.429 11.6566C123.939 11.1444 123.694 10.2992 123.694 9.12113V5.97099C123.694 4.85143 123.566 3.91115 123.31 3.15014C123.061 2.38181 122.677 1.76715 122.157 1.30615C121.638 0.845159 120.979 0.512218 120.182 0.30733C119.384 0.102443 118.444 0 117.361 0V2.60133C118.21 2.60133 118.872 2.72573 119.348 2.97452C119.823 3.22331 120.152 3.61113 120.335 4.13799C120.526 4.65752 120.621 5.3234 120.621 6.13563V10.1309C120.621 10.6944 120.705 11.2176 120.873 11.7005C121.041 12.1761 121.352 12.5896 121.806 12.9408C122.26 13.292 122.907 13.5664 123.749 13.764C123.824 13.7816 123.901 13.7984 123.979 13.8144V14.1856C123.901 14.2016 123.824 14.2184 123.749 14.236C122.907 14.4262 122.26 14.7006 121.806 15.0592C121.352 15.4104 121.041 15.8275 120.873 16.3105C120.705 16.7861 120.621 17.3056 120.621 17.8691V21.8644C120.621 22.6693 120.526 23.3315 120.335 23.851C120.152 24.3779 119.823 24.7657 119.348 25.0145C118.872 25.2706 118.21 25.3987 117.361 25.3987V28C118.444 28 119.384 27.8976 120.182 27.6927C120.979 27.4878 121.638 27.1548 122.157 26.6938C122.677 26.2328 123.061 25.6182 123.31 24.8499C123.566 24.0889 123.694 23.1486 123.694 22.029V18.8679C123.694 17.6971 123.939 16.8556 124.429 16.3434Z" fill="#0F0F0F"/>
</svg>

