<svg width="100%" height="100%" viewBox="0 0 21 20" fill="none" xmlns="http://www.w3.org/2000/svg">
<path d="M4.66663 12.7777V14.7221C4.66663 15.1111 4.66663 15.3054 4.74232 15.454C4.80889 15.5846 4.91505 15.691 5.04572 15.7576C5.19413 15.8332 5.3885 15.8332 5.77666 15.8332H7.72341C8.11158 15.8332 8.30568 15.8332 8.45408 15.7576C8.58475 15.691 8.6911 15.5845 8.75768 15.4539C8.83329 15.3055 8.83329 15.1113 8.83329 14.7231V13.7498L8.83329 12.7766C8.83329 12.3884 8.83329 12.194 8.75768 12.0456C8.6911 11.9149 8.58475 11.8088 8.45408 11.7422C8.30553 11.6665 8.11117 11.6665 7.72225 11.6665H6.74996H5.7778C5.38888 11.6665 5.19427 11.6665 5.04572 11.7422C4.91505 11.8088 4.80889 11.9149 4.74232 12.0456C4.66663 12.1941 4.66663 12.3888 4.66663 12.7777Z" stroke="#720ADC" stroke-width="1.5" stroke-linecap="round" stroke-linejoin="round"/>
<path d="M13 12.7777V14.7221C13 15.1111 13 15.3054 13.0757 15.454C13.1423 15.5846 13.2484 15.691 13.3791 15.7576C13.5275 15.8332 13.7219 15.8332 14.11 15.8332H16.0568C16.445 15.8332 16.6391 15.8332 16.7875 15.7576C16.9181 15.691 17.0245 15.5845 17.091 15.4539C17.1667 15.3055 17.1667 15.1113 17.1667 14.7231V13.7498L17.1667 12.7766C17.1667 12.3884 17.1667 12.194 17.091 12.0456C17.0245 11.9149 16.9181 11.8088 16.7875 11.7422C16.6389 11.6665 16.4445 11.6665 16.0556 11.6665H15.0833H14.1112C13.7223 11.6665 13.5276 11.6665 13.3791 11.7422C13.2484 11.8088 13.1423 11.9149 13.0757 12.0456C13 12.1941 13 12.3888 13 12.7777Z" stroke="#720ADC" stroke-width="1.5" stroke-linecap="round" stroke-linejoin="round"/>
<path d="M8.83325 6.11118V8.05562C8.83325 8.44455 8.83325 8.63891 8.90894 8.78746C8.97552 8.91813 9.08168 9.02447 9.21235 9.09105C9.36075 9.16667 9.55512 9.16667 9.94329 9.16667H11.89C12.2782 9.16667 12.4723 9.16667 12.6207 9.09105C12.7514 9.02447 12.8577 8.91803 12.9243 8.78736C12.9999 8.63895 12.9999 8.44479 12.9999 8.05663V7.08333L12.9999 6.11005C12.9999 5.72188 12.9999 5.5275 12.9243 5.3791C12.8577 5.24843 12.7514 5.14227 12.6207 5.07569C12.4722 5 12.2778 5 11.8889 5H10.9166H9.94443C9.55551 5 9.3609 5 9.21235 5.07569C9.08168 5.14227 8.97552 5.24843 8.90894 5.3791C8.83325 5.52765 8.83325 5.72225 8.83325 6.11118Z" stroke="#720ADC" stroke-width="1.5" stroke-linecap="round" stroke-linejoin="round"/>
</svg>
