<svg width="100%" height="100%" viewBox="0 0 32 32" fill="none" xmlns="http://www.w3.org/2000/svg">
<path d="M25.6665 25.3334L21.6665 21.3334M13.6668 26.6667H9.92907C8.43851 26.6667 7.69211 26.6667 7.12223 26.3763C6.62047 26.1207 6.21282 25.7123 5.95715 25.2106C5.6665 24.6401 5.6665 23.8938 5.6665 22.4003V9.6003C5.6665 8.10683 5.6665 7.35953 5.95715 6.7891C6.21282 6.28734 6.62047 5.87969 7.12223 5.62402C7.69266 5.33337 8.43996 5.33337 9.93343 5.33337H22.7334C24.2269 5.33337 24.9726 5.33337 25.543 5.62402C26.0448 5.87969 26.4538 6.28734 26.7095 6.7891C26.9998 7.35898 26.9998 8.10536 26.9998 9.59592V13.3336M18.3332 22.6667C15.7558 22.6667 13.6665 20.5774 13.6665 18C13.6665 15.4227 15.7558 13.3334 18.3332 13.3334C20.9105 13.3334 22.9998 15.4227 22.9998 18C22.9998 20.5774 20.9105 22.6667 18.3332 22.6667Z" stroke="#720ADC" stroke-width="2" stroke-linecap="round" stroke-linejoin="round"/>
</svg>
