<svg width="100%" height="100%" viewBox="0 0 21 20" fill="none" xmlns="http://www.w3.org/2000/svg">
<path d="M11.8338 17.5636L16.384 14.9365C16.8698 14.656 17.1122 14.5158 17.2888 14.3196C17.4451 14.1461 17.5632 13.9416 17.6354 13.7195C17.7168 13.469 17.7168 13.1891 17.7168 12.6309V7.36906C17.7168 6.81081 17.7168 6.53094 17.6354 6.28048C17.5632 6.05835 17.4451 5.85373 17.2888 5.68016C17.1129 5.48484 16.8711 5.34521 16.3895 5.06718L11.833 2.43649C11.3473 2.15604 11.1049 2.01611 10.8467 1.96123C10.6182 1.91266 10.382 1.91266 10.1536 1.96123C9.89536 2.01611 9.65216 2.15604 9.16642 2.43649L4.61536 5.06404C4.13019 5.34416 3.88779 5.4841 3.71126 5.68016C3.55498 5.85373 3.43695 6.05835 3.36478 6.28048C3.2832 6.53153 3.2832 6.81213 3.2832 7.37301V12.6271C3.2832 13.188 3.2832 13.4684 3.36478 13.7195C3.43695 13.9416 3.55498 14.1461 3.71126 14.3196C3.8879 14.5158 4.13047 14.656 4.61621 14.9365L9.16642 17.5635C9.65215 17.844 9.89536 17.984 10.1536 18.0389C10.382 18.0874 10.6182 18.0874 10.8467 18.0389C11.1049 17.984 11.3481 17.844 11.8338 17.5636Z" stroke="#720ADC" stroke-width="1.5" stroke-linecap="round" stroke-linejoin="round"/>
<path d="M8 9.99996C8 11.3807 9.11929 12.5 10.5 12.5C11.8807 12.5 13 11.3807 13 9.99996C13 8.61925 11.8807 7.49996 10.5 7.49996C9.11929 7.49996 8 8.61925 8 9.99996Z" stroke="#720ADC" stroke-width="1.5" stroke-linecap="round" stroke-linejoin="round"/>
</svg>
