<svg width="100%" height="100%" viewBox="0 0 32 32" fill="none" xmlns="http://www.w3.org/2000/svg">
<path d="M18.6667 20.2631H28M4 20.2631H6.66667M6.66667 20.2631C6.66667 22.1041 8.15905 23.5965 10 23.5965C11.8409 23.5965 13.3333 22.1041 13.3333 20.2631C13.3333 18.4222 11.8409 16.9298 10 16.9298C8.15905 16.9298 6.66667 18.4222 6.66667 20.2631ZM26.6667 12.2631H28M4 12.2631H13.3333M22 15.5965C20.1591 15.5965 18.6667 14.1041 18.6667 12.2631C18.6667 10.4222 20.1591 8.92981 22 8.92981C23.8409 8.92981 25.3333 10.4222 25.3333 12.2631C25.3333 14.1041 23.8409 15.5965 22 15.5965Z" stroke="#12B76A" stroke-width="2" stroke-linecap="round" stroke-linejoin="round"/>
</svg>
