<svg width="100%" height="100%" viewBox="0 0 32 32" fill="none" xmlns="http://www.w3.org/2000/svg">
<path fill-rule="evenodd" clip-rule="evenodd" d="M6 4.5874C4.89543 4.5874 4 5.48283 4 6.5874V26.5874C4 27.6919 4.89543 28.5874 6 28.5874H26C27.1045 28.5874 28 27.6919 28 26.5874V6.5874C28 5.48283 27.1045 4.5874 26 4.5874H6ZM11.361 9.92436C11.3685 11.1994 10.4141 11.985 9.28164 11.9794C8.21476 11.9737 7.28476 11.1244 7.29039 9.92624C7.29601 8.79936 8.18664 7.89374 9.34352 7.91999C10.5173 7.94624 11.3685 8.80687 11.361 9.92436ZM16.3729 13.6031H13.0129H13.0111V25.0162H16.5623V24.7499C16.5623 24.2434 16.5619 23.7367 16.5615 23.2299C16.5604 21.8782 16.5592 20.525 16.5661 19.1737C16.568 18.8455 16.5829 18.5043 16.6673 18.1911C16.9841 17.0211 18.0361 16.2655 19.2099 16.4513C19.9636 16.5693 20.4623 17.0062 20.6723 17.7169C20.8017 18.1611 20.8599 18.6393 20.8655 19.1025C20.8807 20.4993 20.8785 21.8961 20.8764 23.293C20.8756 23.7861 20.8748 24.2794 20.8748 24.7725V25.0143H24.4373V24.7406C24.4373 24.1379 24.4371 23.5354 24.4367 22.9329C24.436 21.4269 24.4352 19.9209 24.4392 18.4143C24.4411 17.7337 24.368 17.0625 24.2011 16.4043C23.9517 15.4255 23.4361 14.6155 22.598 14.0306C22.0036 13.6143 21.3511 13.3462 20.6217 13.3162C20.5387 13.3127 20.4549 13.3082 20.3708 13.3037C19.9979 13.2835 19.6188 13.263 19.2623 13.3349C18.2423 13.5393 17.3461 14.0062 16.6692 14.8293C16.5905 14.9237 16.5136 15.0195 16.3988 15.1626L16.3729 15.195V13.6031ZM7.57552 25.0199H11.1099V13.6105H7.57552V25.0199Z" fill="#9F9F9F"/>
</svg>
