<svg version="1.0" xmlns="http://www.w3.org/2000/svg" viewBox="370 400 3750 2800" preserveAspectRatio="xMidYMid meet">
    <g transform="translate(0, 3500) scale(1,-1)" fill="#000000" stroke="none">
        <path d="M900 3087 c-122 -34 -209 -135 -240 -277 -6 -30 -16 -194 -20 -365
-9 -313 -16 -370 -53 -442 -22 -41 -57 -68 -116 -88 -72 -24 -94 -53 -99 -130
-7 -103 18 -141 106 -160 65 -14 119 -81 142 -177 6 -23 15 -198 20 -388 5
-190 14 -367 20 -394 24 -116 84 -203 172 -251 47 -26 65 -29 163 -33 85 -3
119 -1 148 11 52 22 72 70 63 152 -9 83 -31 103 -127 118 -41 6 -77 16 -81 21
-23 32 -30 112 -38 417 -12 447 -27 512 -139 623 l-47 46 51 53 c108 111 123
175 135 572 11 405 12 409 121 419 91 9 114 30 124 108 9 71 -8 133 -42 155
-34 22 -198 28 -263 10z" />
        <path d="M3315 3093 c-68 -19 -105 -123 -74 -212 14 -38 46 -56 119 -66 83
-10 89 -13 100 -53 6 -20 15 -181 21 -357 5 -176 14 -348 19 -383 12 -87 42
-144 110 -204 l58 -52 -39 -45 c-46 -52 -92 -143 -114 -227 -10 -39 -19 -142
-26 -299 -5 -132 -13 -296 -18 -364 -10 -147 -16 -157 -108 -169 -80 -11 -107
-30 -123 -86 -17 -61 -8 -119 25 -162 l28 -36 131 4 c111 4 138 8 174 27 64
33 118 87 147 145 44 90 54 170 61 461 6 307 17 431 43 490 28 64 76 112 130
130 76 25 96 53 96 135 0 88 -20 118 -96 142 -91 30 -117 47 -141 97 -21 43
-22 63 -30 379 -9 426 -24 509 -108 604 -60 69 -135 98 -262 103 -57 2 -112 2
-123 -2z" />
        <path d="M2137 2649 c-204 -28 -368 -135 -440 -286 -30 -65 -32 -74 -32 -188
0 -111 2 -124 28 -177 36 -73 114 -144 208 -191 47 -23 147 -55 269 -87 287
-75 356 -115 367 -214 16 -138 -163 -241 -358 -206 -126 23 -199 81 -230 182
l-16 52 -99 -1 c-54 0 -125 -1 -156 -2 l-58 -1 0 -42 c1 -155 112 -324 260
-396 116 -57 206 -74 375 -74 169 0 260 17 373 73 271 132 333 510 116 708
-82 75 -191 124 -382 171 -197 49 -263 73 -307 111 -42 38 -59 79 -53 133 7
61 41 104 107 135 48 22 69 26 151 26 75 0 105 -5 140 -21 60 -28 109 -80 123
-131 l11 -43 159 0 160 0 -6 61 c-16 180 -177 343 -388 394 -82 20 -235 26
-322 14z" />
    </g>
</svg>